<?xml version="1.0" encoding="utf-8"?>
<!-- Generator: Adobe Illustrator 19.0.0, SVG Export Plug-In . SVG Version: 6.00 Build 0)  -->
<!DOCTYPE svg PUBLIC "-//W3C//DTD SVG 1.1//EN" "http://www.w3.org/Graphics/SVG/1.1/DTD/svg11.dtd">
<svg version="1.1" id="Layer_1" xmlns="http://www.w3.org/2000/svg" xmlns:xlink="http://www.w3.org/1999/xlink" x="0px" y="0px"
	 viewBox="-387 299 16 16" style="enable-background:new -387 299 16 16;" xml:space="preserve">
<style type="text/css">
	.st0{display:none;}
	.st1{display:inline;}
	.st2{display:inline;clip-path:url(#SVGID_2_);fill:#828282;}
	.st3{fill:#828282;}
</style>
<g class="st0">
	<defs>
		<rect id="SVGID_1_" x="-386.3" y="299.7" width="14.7" height="14.7"/>
	</defs>
	<clipPath id="SVGID_2_" class="st1">
		<use xlink:href="#SVGID_1_"  style="overflow:visible;"/>
	</clipPath>
	<path class="st2" d="M-379,301c2,0,2.2,0,3,0c0.7,0,1.1,0.2,1.4,0.3c0.3,0.1,0.6,0.3,0.8,0.5c0.3,0.3,0.4,0.5,0.5,0.8
		c0.1,0.3,0.2,0.6,0.3,1.4c0,0.8,0,1,0,3c0,2,0,2.2,0,3c0,0.7-0.2,1.1-0.3,1.4c-0.1,0.3-0.3,0.6-0.5,0.8c-0.3,0.3-0.5,0.4-0.8,0.5
		c-0.3,0.1-0.6,0.2-1.4,0.3c-0.8,0-1,0-3,0c-2,0-2.2,0-3,0c-0.7,0-1.1-0.2-1.4-0.3c-0.3-0.1-0.6-0.3-0.8-0.5
		c-0.3-0.3-0.4-0.5-0.5-0.8c-0.1-0.3-0.2-0.6-0.3-1.4c0-0.8,0-1,0-3c0-2,0-2.2,0-3c0-0.7,0.2-1.1,0.3-1.4c0.1-0.3,0.3-0.6,0.5-0.8
		c0.3-0.3,0.5-0.4,0.8-0.5c0.3-0.1,0.6-0.2,1.4-0.3C-381.2,301-381,301-379,301 M-379,299.7c-2,0-2.2,0-3,0c-0.8,0-1.3,0.2-1.8,0.3
		c-0.5,0.2-0.9,0.4-1.3,0.8c-0.4,0.4-0.7,0.8-0.8,1.3c-0.2,0.5-0.3,1-0.3,1.8c0,0.8,0,1,0,3c0,2,0,2.2,0,3c0,0.8,0.2,1.3,0.3,1.8
		c0.2,0.5,0.4,0.9,0.8,1.3c0.4,0.4,0.8,0.7,1.3,0.8c0.5,0.2,1,0.3,1.8,0.3c0.8,0,1,0,3,0c2,0,2.2,0,3,0c0.8,0,1.3-0.2,1.8-0.3
		c0.5-0.2,0.9-0.4,1.3-0.8s0.7-0.8,0.8-1.3c0.2-0.5,0.3-1,0.3-1.8c0-0.8,0-1,0-3c0-2,0-2.2,0-3c0-0.8-0.2-1.3-0.3-1.8
		c-0.2-0.5-0.4-0.9-0.8-1.3s-0.8-0.7-1.3-0.8c-0.5-0.2-1-0.3-1.8-0.3C-376.8,299.7-377,299.7-379,299.7"/>
	<path class="st2" d="M-379,303.2c-2.1,0-3.8,1.7-3.8,3.8c0,2.1,1.7,3.8,3.8,3.8s3.8-1.7,3.8-3.8
		C-375.2,304.9-376.9,303.2-379,303.2 M-379,309.4c-1.4,0-2.4-1.1-2.4-2.4c0-1.4,1.1-2.4,2.4-2.4s2.4,1.1,2.4,2.4
		C-376.6,308.4-377.6,309.4-379,309.4"/>
	<path class="st2" d="M-374.2,303.1c0,0.5-0.4,0.9-0.9,0.9c-0.5,0-0.9-0.4-0.9-0.9c0-0.5,0.4-0.9,0.9-0.9
		C-374.6,302.2-374.2,302.6-374.2,303.1"/>
</g>
<g>
	<path class="st3" d="M-374.7,299.7h-8.9c-1.5,0-2.7,1.2-2.7,2.7v8.9c0,1.5,1.2,2.7,2.7,2.7h8.9c1.5,0,2.7-1.2,2.7-2.7v-8.9
		C-372.1,300.8-373.3,299.7-374.7,299.7z M-375.1,307.3h-1.3v4.9h-2.2v-4.9h-0.9v-1.7h0.9v-1.1c0-1.4,0.6-2.2,2.2-2.2h1.7v1.7h-1
		c-0.6,0-0.7,0.2-0.7,0.7l0,0.9h1.5L-375.1,307.3z"/>
</g>
</svg>
