<?xml version="1.0" encoding="utf-8"?>
<!-- Generator: Adobe Illustrator 19.0.0, SVG Export Plug-In . SVG Version: 6.00 Build 0)  -->
<!DOCTYPE svg PUBLIC "-//W3C//DTD SVG 1.1//EN" "http://www.w3.org/Graphics/SVG/1.1/DTD/svg11.dtd">
<svg version="1.1" id="Layer_1" xmlns="http://www.w3.org/2000/svg" xmlns:xlink="http://www.w3.org/1999/xlink" x="0px" y="0px"
	 viewBox="0 0 248.8 172.5" style="enable-background:new 0 0 248.8 172.5;" xml:space="preserve">
<style type="text/css">
	.st0{clip-path:url(#XMLID_141_);fill:#ED1B5B;}
	.st1{clip-path:url(#XMLID_141_);fill:#8FC741;}
	.st2{clip-path:url(#XMLID_141_);fill:#FFF200;}
	.st3{clip-path:url(#XMLID_141_);fill:#EF3963;}
	.st4{clip-path:url(#XMLID_141_);fill:#ED145B;}
	.st5{clip-path:url(#XMLID_141_);fill:#FFFFFF;}
	.st6{clip-path:url(#XMLID_141_);fill:#AB0677;}
	.st7{clip-path:url(#XMLID_141_);fill:#8DC63F;}
	.st8{fill:#FFFFFF;}
	.st9{font-family:'Vanilla';}
	.st10{font-size:27.0069px;}
	.st11{font-family:'OldSchoolUnitedStencil';}
</style>
<g id="XMLID_94_">
	<defs>
		<rect id="XMLID_14_" x="-238.4" y="-10.5" width="487.2" height="187"/>
	</defs>
	<clipPath id="XMLID_141_">
		<use xlink:href="#XMLID_14_"  style="overflow:visible;"/>
	</clipPath>
	<path id="XMLID_86_" class="st0" d="M240.3,129.6c1.3-1.9,3.5,0.2,2.4,2c-0.8,1.4-1.7,2.9-2.5,4.3c-1.2,2.1-3.1,3.9-4.7,5.7
		c-1.3,1.8-3.8-0.3-2.4-1.9c1.1-1.2,2.2-2.5,3.3-3.7C238,134.1,238.6,131.4,240.3,129.6"/>
	<path id="XMLID_85_" class="st1" d="M236.8,109.8c1.7,1.2-0.1,3.7-1.8,2.5c-0.9-0.7-1.9-1.3-2.8-2c-2.3-1.6-5.3-3.1-7.3-5.2
		c-1.7-1.2,0.1-3.7,1.8-2.5c0.9,0.7,1.9,1.3,2.8,2C232,106.4,234.4,108.1,236.8,109.8"/>
	<path id="XMLID_84_" class="st2" d="M232.8,17.4c0.9-1.9,3.7-0.5,2.8,1.4c-0.5,1-1,2.1-1.5,3.1c-1.3,2.7-2.6,5.4-4,8.1
		c-0.9,1.9-3.7,0.5-2.8-1.4c0.5-1,1-2.1,1.5-3.1C230.1,22.9,231.1,19.7,232.8,17.4"/>
	<path id="XMLID_83_" class="st3" d="M215.3,70.1c0.9-1.9,3.7-0.5,2.8,1.4c-0.5,1-1,2.1-1.5,3.1c-1.3,2.7-2.6,5.4-4,8.1
		c-0.9,1.9-3.7,0.5-2.8-1.4c0.5-1,1-2.1,1.5-3.1C212.6,75.6,213.6,72.4,215.3,70.1"/>
	<path id="XMLID_82_" class="st2" d="M208.1,134.3c1.3-1.9,3.5,0.2,2.4,2c-0.8,1.4-1.7,2.9-2.5,4.3c-1.2,2.1-3.1,3.9-4.7,5.7
		c-1.3,1.8-3.8-0.3-2.4-1.9c1.1-1.2,2.2-2.5,3.3-3.7C205.8,138.8,206.4,136.1,208.1,134.3"/>
	<path id="XMLID_81_" class="st4" d="M209.1,14.4c0,0,0,0.1,0,0.1c-0.2,1.6-0.3,3.1-0.5,4.7c-0.3,2.6,0.2,5.2,0.5,7.7
		c0,1.8-2,2-2.8,0.9c-0.1-1.6-0.2-3.1-0.2-4.7c0-0.5-0.1-1-0.1-1.6l0-3.7c0-0.8,0.1-1.6,0.3-2.4C206.3,13.8,208.3,13.5,209.1,14.4"
		/>
	<path id="XMLID_80_" class="st1" d="M193.3,18.7c1.7,1.2-0.1,3.7-1.8,2.6c-0.9-0.7-1.9-1.3-2.8-2c-2.3-1.6-5.3-3.1-7.3-5.2
		c-1.7-1.2,0.1-3.7,1.8-2.6c0.9,0.7,1.9,1.3,2.8,2C188.4,15.3,190.9,17,193.3,18.7"/>
	<path id="XMLID_79_" class="st5" d="M173.5,34.1c0.8-2,3.6-0.8,2.9,1.2c-0.4,1.1-0.8,2.2-1.3,3.2c-1.1,2.8-2.2,5.6-3.2,8.4
		c-0.8,2-3.6,0.8-2.9-1.2c0.4-1.1,0.8-2.2,1.3-3.2C171.3,39.8,172,36.6,173.5,34.1"/>
	<path id="XMLID_78_" class="st6" d="M167.6,19.7c1.3-1.9,3.5,0.2,2.4,2c-0.8,1.4-1.7,2.9-2.5,4.3c-1.2,2.1-3.1,3.9-4.7,5.7
		c-1.3,1.8-3.8-0.3-2.4-1.9c1.1-1.2,2.2-2.5,3.3-3.7C165.3,24.1,165.9,21.5,167.6,19.7"/>
	<path id="XMLID_77_" class="st7" d="M158.8,147.9c0.7-2,3.6-1,2.9,1c-0.4,1.1-0.7,2.2-1.1,3.3c-0.9,2.8-1.9,5.7-2.8,8.5
		c-0.7,2-3.6,1-2.9-1c0.4-1.1,0.7-2.2,1.1-3.3C156.8,153.8,157.4,150.4,158.8,147.9"/>
	<path id="XMLID_76_" class="st4" d="M139.2,10.1c0.9-1.9,3.7-0.5,2.8,1.4c-0.5,1-1,2.1-1.5,3.1c-1.3,2.7-2.6,5.4-4,8.1
		c-0.9,1.9-3.7,0.5-2.8-1.4c0.5-1,1-2.1,1.5-3.1C136.5,15.6,137.5,12.4,139.2,10.1"/>
	<path id="XMLID_75_" class="st5" d="M129,141.8c1.7-1.2,3.5,1.2,1.8,2.5c-0.9,0.7-1.9,1.4-2.8,2.1c-2.3,1.7-4.7,4.1-7.2,5.4
		c-1.7,1.2-3.5-1.2-1.8-2.5c0.9-0.7,1.9-1.4,2.8-2.1C124.2,145.3,126.6,143.5,129,141.8"/>
	<path id="XMLID_74_" class="st1" d="M113.4,30c1,2-1.8,3.1-2.8,1.3c-0.8-1.4-1.6-2.9-2.4-4.3c-1.1-2-2.5-4.5-3.1-6.7
		c-1-1.9,2-3.3,2.8-1.3c0.6,1.5,1.2,3.1,1.8,4.6C110.5,26,112.1,28,113.4,30"/>
	<path id="XMLID_73_" class="st6" d="M95.4,158.1c0.6,2-2.4,2.9-3,0.8c-0.3-1.1-0.6-2.2-0.9-3.4c-0.8-2.7-2.2-5.8-2.4-8.7
		c-0.6-2,2.4-2.9,3-0.8c0.3,1.1,0.6,2.2,0.9,3.3C93.8,152.4,94.6,155.3,95.4,158.1"/>
	<path id="XMLID_72_" class="st2" d="M94.3,38.9c0.6,2-2.4,2.9-3,0.8c-0.3-1.1-0.6-2.2-0.9-3.4c-0.8-2.7-2.2-5.8-2.4-8.7
		c-0.6-2,2.4-2.9,3-0.8c0.3,1.1,0.6,2.2,0.9,3.3C92.7,33.1,93.5,36,94.3,38.9"/>
	<path id="XMLID_71_" class="st6" d="M70.2,15.9c0.1-2.1,3.2-2,3.1,0.1c0,1.2-0.1,2.3-0.1,3.5c-0.1,3-0.3,6-0.4,9
		c-0.1,2.1-3.2,2-3.1-0.1c0-1.2,0.1-2.3,0.1-3.5C70,22.1,69.6,18.7,70.2,15.9"/>
	<path id="XMLID_70_" class="st0" d="M64.5,144.5c1.3-1.9,3.5,0.2,2.4,2c-0.8,1.4-1.7,2.9-2.5,4.3c-1.2,2.1-3.1,3.8-4.7,5.7
		c-1.3,1.8-3.8-0.3-2.4-1.9c1.1-1.2,2.2-2.5,3.3-3.7C62.3,148.9,62.9,146.3,64.5,144.5"/>
	<path id="XMLID_69_" class="st1" d="M56.2,9c0.9-1.9,3.7-0.5,2.8,1.4c-0.5,1-1,2.1-1.5,3.1c-1.3,2.7-2.6,5.4-4,8.1
		c-0.9,1.9-3.7,0.5-2.8-1.4C51.2,19.1,54.5,11.3,56.2,9"/>
	<path id="XMLID_68_" class="st0" d="M50.9,34.5c1.7,1.2-0.1,3.7-1.8,2.5c-0.9-0.7-1.9-1.3-2.8-2C44,33.4,41,31.9,39,29.9
		c-1.7-1.2,0.1-3.7,1.8-2.5c0.9,0.7,1.9,1.3,2.8,2C46.1,31.1,48.5,32.8,50.9,34.5"/>
	<path id="XMLID_67_" class="st2" d="M40.6,98.5c1,2-1.8,3.1-2.8,1.3c-0.8-1.4-1.6-2.9-2.4-4.3c-1.2-2-2.5-4.5-3.1-6.7
		c-1-1.9,2-3.3,2.8-1.3c0.6,1.5,1.2,3.1,1.8,4.6C37.7,94.4,39.3,96.4,40.6,98.5"/>
	<path id="XMLID_66_" class="st1" d="M34.9,161.9c1,2-1.8,3.1-2.8,1.3c-0.8-1.4-1.6-2.9-2.4-4.3c-1.2-2-2.5-4.5-3.1-6.7
		c-1-1.9,2-3.3,2.8-1.3c0.6,1.5,1.2,3.1,1.8,4.6C32,157.8,33.6,159.8,34.9,161.9"/>
	<path id="XMLID_65_" class="st6" d="M29.6,45.7c1,2-1.8,3.1-2.8,1.3c-0.8-1.4-1.6-2.9-2.4-4.3c-1.2-2-2.5-4.5-3.1-6.7
		c-1-1.9,2-3.3,2.8-1.3c0.6,1.5,1.2,3.1,1.8,4.6C26.7,41.7,28.3,43.7,29.6,45.7"/>
	<path id="XMLID_64_" class="st5" d="M24.9,62.8c0.9-1.9,3.7-0.5,2.8,1.4c-0.5,1-1,2.1-1.5,3.1c-1.3,2.7-2.6,5.4-4,8.1
		c-0.9,1.9-3.7,0.5-2.8-1.4c0.5-1,1-2.1,1.5-3.1C22.2,68.3,23.3,65.1,24.9,62.8"/>
	<path id="XMLID_63_" class="st5" d="M19.3,15.7c0.9-1.9,3.7-0.5,2.8,1.4c-0.5,1-1,2.1-1.5,3.1c-1.3,2.7-2.6,5.4-4,8.1
		c-0.9,1.9-3.7,0.5-2.8-1.4c0.5-1,1-2.1,1.5-3.1C16.6,21.2,17.6,18,19.3,15.7"/>
	<path id="XMLID_62_" class="st2" d="M16.7,128.3c0.9-1.9,3.7-0.5,2.8,1.4c-0.5,1-1,2.1-1.5,3.1c-1.3,2.7-2.6,5.4-4,8.1
		c-0.9,1.9-3.7,0.5-2.8-1.4c0.5-1,1-2.1,1.5-3.1C14,133.8,15,130.6,16.7,128.3"/>
	<path id="XMLID_61_" class="st6" d="M16.4,109.2c0.3,2.6-0.2,5.2-0.5,7.7c0,2.1-3.3,2-3.1,0c0.2-1.6,0.3-3.1,0.5-4.7
		c0.3-2.6-0.8-5.2-0.5-7.7c0-2.2,2.9-2,3.1,0C16.1,106,16.2,107.6,16.4,109.2"/>
	<path id="XMLID_60_" class="st1" d="M9.1,52.6c-0.3,2.6,0.8,5.2,0.5,7.7c0,2.2-2.9,2-3.1,0c-0.2-1.6-0.3-3.1-0.5-4.7
		c-0.3-2.6,0.2-5.2,0.5-7.7c0-2.1,3.3-2,3.1,0C9.4,49.5,9.2,51.1,9.1,52.6"/>
</g>
<text id="XMLID_19_" transform="matrix(0.9976 -6.975754e-02 6.975754e-02 0.9976 49.0105 68.5948)" class="st8 st9 st10">J-Rock</text>
<text id="XMLID_18_" transform="matrix(0.9976 -6.975754e-02 6.975754e-02 0.9976 167.8483 60.2847)" class="st8 st11 st10"> </text>
<text id="XMLID_17_" transform="matrix(0.9976 -6.975754e-02 6.975754e-02 0.9976 174.5833 59.8138)" class="st8 st9 st10">s</text>
<text id="XMLID_16_" transform="matrix(0.9976 -6.975754e-02 6.975754e-02 0.9976 46.3681 101.2659)" class="st8 st9 st10">Excellent</text>
<text id="XMLID_15_" transform="matrix(0.9976 -6.975754e-02 6.975754e-02 0.9976 32.6523 134.7134)" class="st8 st9 st10">Ice Creams</text>
<path id="XMLID_21_" class="st8" d="M213.7,46.9c-1.3-1.7,1.3-3.5,2.5-1.8c0.7,0.9,1.4,1.9,2.1,2.8c1.8,2.4,3.6,4.8,5.4,7.2
	c1.3,1.7-1.3,3.5-2.5,1.8c-0.7-0.9-1.4-1.9-2.1-2.8C217.3,51.8,214.9,49.5,213.7,46.9"/>
</svg>
