<?xml version="1.0" encoding="utf-8"?>
<!-- Generator: Adobe Illustrator 19.0.0, SVG Export Plug-In . SVG Version: 6.00 Build 0)  -->
<!DOCTYPE svg PUBLIC "-//W3C//DTD SVG 1.1//EN" "http://www.w3.org/Graphics/SVG/1.1/DTD/svg11.dtd">
<svg version="1.1" id="Layer_1" xmlns="http://www.w3.org/2000/svg" xmlns:xlink="http://www.w3.org/1999/xlink" x="0px" y="0px"
	 viewBox="0 0 248.8 248.8" style="enable-background:new 0 0 248.8 248.8;" xml:space="preserve">
<style type="text/css">
	.st0{clip-path:url(#SVGID_2_);fill:#00AEEF;}
	.st1{fill:#ED1B5B;}
	.st2{fill:#8FC741;}
	.st3{fill:#FFF200;}
	.st4{fill:#AB0677;}
	.st5{fill:#ED145B;}
	.st6{fill:#F26739;}
	.st7{fill:#8DC63F;}
	.st8{fill:#FFFFFF;}
	.st9{font-family:'OldSchoolUnitedStencil';}
	.st10{font-size:27.0069px;}
</style>
<g id="XMLID_15_">
	<defs>
		<rect id="SVGID_1_" x="-472" y="-94.4" width="1244.9" height="358.5"/>
	</defs>
	<clipPath id="SVGID_2_">
		<use xlink:href="#SVGID_1_"  style="overflow:visible;"/>
	</clipPath>
	<path class="st0" d="M150.5,263.1c338.8,0,613.5-78.5,613.5-175.3c0-96.8-274.7-175.3-613.5-175.3S-463-8.9-463,87.9
		C-463,184.7-188.3,263.1,150.5,263.1"/>
</g>
<g id="XMLID_94_">
	<path id="XMLID_86_" class="st1" d="M14.7,200.4c-1.4,1.8-3.5-0.3-2.4-2c0.9-1.4,1.8-2.8,2.6-4.2c1.3-2.1,3.2-3.7,4.9-5.5
		c1.4-1.7,3.8,0.5,2.4,2c-1.1,1.2-2.3,2.4-3.4,3.6C17.1,196,16.4,198.7,14.7,200.4"/>
	<path id="XMLID_33_" class="st1" d="M235,242.5c-1.4,1.8-3.5-0.3-2.4-2c0.9-1.4,1.8-2.8,2.6-4.2c1.3-2.1,3.2-3.7,4.9-5.5
		c1.4-1.7,3.8,0.5,2.4,2c-1.1,1.2-2.3,2.4-3.4,3.6C237.4,238.2,236.7,240.8,235,242.5"/>
	<path id="XMLID_85_" class="st2" d="M222.7,74.8c-0.9,1.9-3.7,0.6-2.8-1.3c0.5-1.1,0.9-2.1,1.4-3.2c1.2-2.6,2.1-5.8,3.7-8.2
		c0.9-1.9,3.7-0.6,2.8,1.3c-0.5,1.1-1,2.1-1.4,3.2C225.2,69.4,224,72.1,222.7,74.8"/>
	<path id="XMLID_84_" class="st3" d="M232.8,12.9c0.9-1.9,3.7-0.5,2.8,1.4c-0.5,1-1,2.1-1.5,3.1c-1.3,2.7-2.6,5.4-4,8.1
		c-0.9,1.9-3.7,0.5-2.8-1.4c0.5-1,1-2.1,1.5-3.1C230.1,18.4,231.1,15.2,232.8,12.9"/>
	<path id="XMLID_83_" class="st4" d="M212,36.9c0.9-1.9,3.7-0.5,2.8,1.4c-0.5,1-1,2.1-1.5,3.1c-1.3,2.7-2.6,5.4-4,8.1
		c-0.9,1.9-3.7,0.5-2.8-1.4c0.5-1,1-2.1,1.5-3.1C209.3,42.4,210.3,39.2,212,36.9"/>
	<path id="XMLID_2_" class="st2" d="M172.7,93.1c1.2,1.8-1.5,3.4-2.6,1.7c-0.6-1-1.3-1.9-1.9-2.9c-1.7-2.5-3.3-5-5-7.5
		c-1.2-1.8,1.5-3.4,2.6-1.7c0.6,1,1.3,1.9,1.9,2.9C169.2,88,171.5,90.5,172.7,93.1"/>
	<path id="XMLID_82_" class="st3" d="M104.9,72.6c1.3-1.9,3.5,0.2,2.4,2c-0.8,1.4-1.7,2.9-2.5,4.3c-1.2,2.1-3.1,3.9-4.7,5.7
		c-1.3,1.8-3.8-0.3-2.4-1.9c1.1-1.2,2.2-2.5,3.3-3.7C102.6,77,103.2,74.3,104.9,72.6"/>
	<path id="XMLID_81_" class="st5" d="M208.6,206.4c0,0,0.1,0,0.1-0.1c1.5-0.5,3-1.1,4.4-1.6c2.4-0.9,4.6-2.4,6.8-3.8
		c1.6-0.8,2.7,1,2,2.1c-1.4,0.7-2.8,1.5-4.1,2.2c-0.5,0.2-0.9,0.5-1.4,0.8l-3.4,1.6c-0.8,0.3-1.5,0.6-2.3,0.8
		C209.3,209.1,208.1,207.5,208.6,206.4"/>
	<path id="XMLID_30_" class="st5" d="M102,211.2c0,0,0.1,0,0.1,0.1c1.4,0.8,2.7,1.6,4.1,2.4c2.2,1.3,4.8,2,7.2,2.8
		c1.6,0.7,1,2.7-0.4,2.9c-1.5-0.6-2.9-1.2-4.4-1.8c-0.5-0.2-1-0.4-1.5-0.6l-3.4-1.6c-0.7-0.4-1.4-0.8-2.1-1.3
		C100.3,213.5,100.9,211.5,102,211.2"/>
	<path id="XMLID_80_" class="st2" d="M193.3,14.2c1.7,1.2-0.1,3.7-1.8,2.6c-0.9-0.7-1.9-1.3-2.8-2c-2.3-1.6-5.3-3.1-7.3-5.2
		c-1.7-1.2,0.1-3.7,1.8-2.6c0.9,0.7,1.9,1.3,2.8,2C188.4,10.8,190.9,12.5,193.3,14.2"/>
	<path id="XMLID_79_" class="st6" d="M189.7,111.5c-0.8,1.9-3.7,0.7-2.9-1.2c0.5-1.1,0.9-2.1,1.4-3.2c1.2-2.8,2.3-5.5,3.5-8.3
		c0.8-1.9,3.7-0.7,2.9,1.2c-0.5,1.1-0.9,2.1-1.4,3.2C192.1,105.9,191.2,109.1,189.7,111.5"/>
	<path id="XMLID_78_" class="st4" d="M167.6,15.2c1.3-1.9,3.5,0.2,2.4,2c-0.8,1.4-1.7,2.9-2.5,4.3c-1.2,2.1-3.1,3.9-4.7,5.7
		c-1.3,1.8-3.8-0.3-2.4-1.9c1.1-1.2,2.2-2.5,3.3-3.7C165.3,19.7,165.9,17,167.6,15.2"/>
	<path id="XMLID_77_" class="st7" d="M53.9,196.7c-0.7,1.9-3.6,0.9-2.9-1.1c0.4-1.1,0.8-2.2,1.2-3.3c1-2.8,2.1-5.6,3.1-8.4
		c0.7-1.9,3.6-0.9,2.9,1.1c-0.4,1.1-0.8,2.2-1.2,3.3C56.1,190.9,55.4,194.3,53.9,196.7"/>
	<path id="XMLID_36_" class="st7" d="M186.6,129.8c-1.6-1.3,0.3-3.7,1.9-2.4c0.9,0.7,1.8,1.4,2.7,2.2c2.3,1.9,4.7,3.7,7,5.6
		c1.6,1.3-0.3,3.7-1.9,2.4c-0.9-0.7-1.8-1.5-2.7-2.2C191.4,133.6,188.4,132,186.6,129.8"/>
	<path id="XMLID_76_" class="st5" d="M222.6,126.7c-1,1.9-3.7,0.3-2.7-1.5c0.5-1,1.1-2,1.6-3.1c1.4-2.6,2.8-5.3,4.2-7.9
		c1-1.9,3.7-0.3,2.7,1.5c-0.5,1-1.1,2-1.6,3.1C225.4,121.2,224.3,124.4,222.6,126.7"/>
	<path id="XMLID_75_" class="st1" d="M129,137.3c1.7-1.2,3.5,1.2,1.8,2.5c-0.9,0.7-1.9,1.4-2.8,2.1c-2.3,1.7-4.7,4.1-7.2,5.4
		c-1.7,1.2-3.5-1.2-1.8-2.5c0.9-0.7,1.9-1.4,2.8-2.1C124.2,140.8,126.6,139.1,129,137.3"/>
	<path id="XMLID_3_" class="st1" d="M199.6,82.7c1.6,1.3-0.2,3.7-1.9,2.4c-0.9-0.7-1.8-1.4-2.8-2.1c-2.2-1.7-5.2-3.4-7.1-5.5
		c-1.6-1.3,0.2-3.7,1.9-2.5c0.9,0.7,1.8,1.4,2.7,2.1C194.9,79.1,197.2,80.9,199.6,82.7"/>
	<path id="XMLID_74_" class="st2" d="M113.4,25.6c1,2-1.8,3.1-2.8,1.3c-0.8-1.4-1.6-2.9-2.4-4.3c-1.1-2-2.5-4.5-3.1-6.7
		c-1-1.9,2-3.3,2.8-1.3c0.6,1.5,1.2,3.1,1.8,4.6C110.5,21.5,112.1,23.5,113.4,25.6"/>
	<path id="XMLID_73_" class="st4" d="M99.2,101.4c-0.5-2,2.5-2.8,3-0.7c0.3,1.1,0.5,2.3,0.8,3.4c0.7,2.7,2,5.9,2.1,8.7
		c0.5,2-2.5,2.8-3,0.7c-0.3-1.1-0.5-2.3-0.8-3.4C100.6,107.2,99.9,104.3,99.2,101.4"/>
	<path id="XMLID_72_" class="st3" d="M15,141.8c-0.5-2,2.5-2.8,3-0.7c0.3,1.1,0.5,2.3,0.8,3.4c0.7,2.7,2,5.9,2.1,8.7
		c0.5,2-2.5,2.8-3,0.7c-0.3-1.1-0.5-2.3-0.8-3.4C16.4,147.7,15.7,144.8,15,141.8"/>
	<path id="XMLID_71_" class="st4" d="M70.2,11.5c0.1-2.1,3.2-2,3.1,0.1c0,1.2-0.1,2.3-0.1,3.5c-0.1,3-0.3,6-0.4,9
		c-0.1,2.1-3.2,2-3.1-0.1c0-1.2,0.1-2.3,0.1-3.5C70,17.6,69.6,14.2,70.2,11.5"/>
	<path id="XMLID_70_" class="st6" d="M184.3,169.2c-1.4,1.8-3.5-0.3-2.4-2c0.9-1.4,1.7-2.8,2.6-4.2c1.3-2.1,3.2-3.7,4.9-5.5
		c1.3-1.7,3.8,0.5,2.4,2c-1.1,1.2-2.3,2.4-3.4,3.6C186.7,164.8,186,167.5,184.3,169.2"/>
	<path id="XMLID_29_" class="st6" d="M138,227.9c-1.4,1.8-3.5-0.3-2.4-2c0.9-1.4,1.7-2.8,2.6-4.2c1.3-2.1,3.2-3.7,4.9-5.5
		c1.3-1.7,3.8,0.5,2.4,2c-1.1,1.2-2.3,2.4-3.4,3.6C140.4,223.5,139.7,226.2,138,227.9"/>
	<path id="XMLID_35_" class="st6" d="M26.7,205c-1.6-1.7,0.9-3.4,2.4-2c1.3,1.1,2.5,2.2,3.7,3.3c1.8,1.6,3.2,3.8,4.7,5.7
		c1.5,1.6-1.1,3.7-2.4,2c-1-1.3-2-2.6-3-4C30.6,208.1,28.1,207,26.7,205"/>
	<path id="XMLID_22_" class="st6" d="M96.2,165.5c-2.3,0.3-2.2-2.7-0.2-3.1c1.6-0.3,3.2-0.7,4.9-1c2.4-0.5,4.9-0.3,7.4-0.3
		c2.2-0.2,2.3,3.1,0.2,3.1c-1.7,0-3.3,0-5,0C101,164.2,98.6,165.5,96.2,165.5"/>
	<path id="XMLID_69_" class="st2" d="M85.7,148.5c-1,1.9-3.7,0.3-2.7-1.5c0.5-1,1.1-2,1.6-3.1c1.4-2.6,2.8-5.3,4.2-7.9
		c1-1.9,3.7-0.3,2.7,1.5C91,138.5,87.4,146.2,85.7,148.5"/>
	<path id="XMLID_68_" class="st1" d="M50.9,30c1.7,1.2-0.1,3.7-1.8,2.5c-0.9-0.7-1.9-1.3-2.8-2C44,28.9,41,27.4,39,25.4
		c-1.7-1.2,0.1-3.7,1.8-2.5c0.9,0.7,1.9,1.3,2.8,2C46.1,26.6,48.5,28.3,50.9,30"/>
	<path id="XMLID_67_" class="st3" d="M40.6,94c1,2-1.8,3.1-2.8,1.3c-0.8-1.4-1.6-2.9-2.4-4.3c-1.2-2-2.5-4.5-3.1-6.7
		c-1-1.9,2-3.3,2.8-1.3c0.6,1.5,1.2,3.1,1.8,4.6C37.7,89.9,39.3,91.9,40.6,94"/>
	<path id="XMLID_66_" class="st2" d="M214.5,152.8c-0.9-2,1.9-3.1,2.9-1.2c0.8,1.5,1.5,2.9,2.3,4.4c1.1,2.1,2.4,4.5,2.9,6.8
		c0.9,2-2.2,3.2-2.9,1.2c-0.5-1.6-1.1-3.1-1.6-4.7C217.3,157,215.8,154.9,214.5,152.8"/>
	<path id="XMLID_65_" class="st4" d="M83.2,182.7c-0.9-2,1.9-3.1,2.9-1.2c0.8,1.5,1.5,2.9,2.3,4.4c1.1,2.1,2.4,4.5,2.9,6.8
		c0.9,2-2.2,3.2-2.9,1.2c-0.5-1.6-1.1-3.1-1.6-4.7C86,186.9,84.5,184.8,83.2,182.7"/>
	<path id="XMLID_24_" class="st4" d="M17.9,102.3c1.8-1.3,3.4,1.3,1.7,2.6c-1.3,1-2.6,2-3.9,3c-1.8,1.4-4,3.1-6.2,4
		c-1.8,1.2-3.6-1.5-1.7-2.6c1.4-0.8,2.9-1.6,4.3-2.4C14.3,105.7,16,103.9,17.9,102.3"/>
	<path id="XMLID_27_" class="st4" d="M81,231.8c1.8-1.3,3.4,1.3,1.7,2.6c-1.3,1-2.6,2-3.9,3c-1.8,1.4-4,3.1-6.2,4
		c-1.8,1.2-3.6-1.5-1.7-2.6c1.4-0.8,2.9-1.6,4.3-2.4C77.3,235.3,79.1,233.4,81,231.8"/>
	<path id="XMLID_64_" class="st6" d="M24.9,58.3c0.9-1.9,3.7-0.5,2.8,1.4c-0.5,1-1,2.1-1.5,3.1c-1.3,2.7-2.6,5.4-4,8.1
		c-0.9,1.9-3.7,0.5-2.8-1.4c0.5-1,1-2.1,1.5-3.1C22.2,63.8,23.3,60.6,24.9,58.3"/>
	<path id="XMLID_63_" class="st6" d="M19.3,11.2c0.9-1.9,3.7-0.5,2.8,1.4c-0.5,1-1,2.1-1.5,3.1c-1.3,2.7-2.6,5.4-4,8.1
		c-0.9,1.9-3.7,0.5-2.8-1.4c0.5-1,1-2.1,1.5-3.1C16.6,16.7,17.6,13.5,19.3,11.2"/>
	<path id="XMLID_62_" class="st3" d="M231.6,187c-1,1.9-3.7,0.3-2.7-1.5c0.5-1,1.1-2,1.6-3.1c1.4-2.6,2.8-5.3,4.2-7.9
		c1-1.9,3.7-0.3,2.7,1.5c-0.5,1-1.1,2-1.6,3.1C234.5,181.6,233.3,184.8,231.6,187"/>
	<path id="XMLID_31_" class="st3" d="M175.6,227.6c-1.3-1.7,1.2-3.5,2.5-1.9c0.7,0.9,1.4,1.8,2.1,2.7c1.8,2.4,3.7,4.7,5.5,7.1
		c1.3,1.7-1.2,3.5-2.5,1.9c-0.7-0.9-1.4-1.8-2.1-2.7C179.4,232.4,176.9,230.1,175.6,227.6"/>
	<path id="XMLID_61_" class="st4" d="M231.2,206.1c-0.2-2.6,0.4-5.1,0.7-7.7c0.1-2.1,3.4-1.9,3.1,0.1c-0.2,1.6-0.4,3.1-0.6,4.7
		c-0.3,2.6,0.6,5.3,0.2,7.8c-0.1,2.2-3,1.9-3.1-0.1C231.4,209.3,231.3,207.7,231.2,206.1"/>
	<path id="XMLID_32_" class="st4" d="M29.7,158c1.3-2.2,3.2-4,5-5.9c1.3-1.7,3.9,0.3,2.5,1.9c-1.1,1.2-2.1,2.3-3.2,3.5
		c-1.7,1.9-2.5,4.7-4.2,6.5c-1.3,1.7-3.5-0.1-2.5-1.9C28.1,160.7,28.9,159.3,29.7,158"/>
	<path id="XMLID_149_" class="st1" d="M40.5,112.4c-1-2,1.8-3.1,2.8-1.3c0.8,1.4,1.6,2.9,2.4,4.3c1.2,2,2.5,4.5,3.1,6.7
		c1,1.9-2,3.3-2.8,1.3c-0.6-1.5-1.2-3.1-1.8-4.6C43.4,116.4,41.8,114.4,40.5,112.4"/>
	<path id="XMLID_148_" class="st2" d="M158.9,174.9c0.9,2-1.9,3.1-2.9,1.2c-0.8-1.5-1.5-2.9-2.3-4.4c-1.1-2.1-2.4-4.5-2.9-6.8
		c-0.9-2,2.2-3.2,2.9-1.2c0.5,1.6,1.1,3.1,1.6,4.7C156.1,170.8,157.6,172.8,158.9,174.9"/>
	<path id="XMLID_34_" class="st2" d="M202,234.2c-1.1,1.9-3.6,0.3-2.7-1.6c0.7-1.5,1.5-3,2.2-4.4c1-2.1,2.3-4.6,3.8-6.3
		c1.1-1.9,3.9-0.1,2.6,1.6c-1,1.4-1.9,2.7-2.9,4.1C203.8,229.5,203,231.9,202,234.2"/>
	<path id="XMLID_147_" class="st3" d="M70.7,120.2c-1.9,1-3.2-1.9-1.4-2.8c1-0.5,2.1-1,3.1-1.6c2.7-1.4,5.3-2.7,8-4
		c1.9-1,3.2,1.9,1.4,2.8c-1,0.5-2.1,1-3.1,1.6C76.2,117.4,73.4,119.4,70.7,120.2"/>
	<path id="XMLID_140_" class="st4" d="M50,80c-0.3-2.6,0.2-5.2,0.5-7.7c0-2.1,3.3-2,3.1,0c-0.2,1.6-0.3,3.1-0.5,4.7
		c-0.3,2.6,0.8,5.2,0.5,7.7c0,2.2-2.9,2-3.1,0C50.3,83.1,50.2,81.6,50,80"/>
	<path id="XMLID_60_" class="st2" d="M9.1,48.1c-0.3,2.6,0.8,5.2,0.5,7.7c0,2.2-2.9,2-3.1,0c-0.2-1.6-0.3-3.1-0.5-4.7
		c-0.3-2.6,0.2-5.2,0.5-7.7c0-2.1,3.3-2,3.1,0C9.4,45,9.2,46.6,9.1,48.1"/>
	<path id="XMLID_146_" class="st2" d="M193.5,52.3c1.6,1.5-0.6,3.6-2.2,2.2c-1.3-1.1-2.5-2.1-3.8-3.1c-1.8-1.5-3.9-3.3-5.3-5.2
		c-1.6-1.5,0.7-3.8,2.2-2.2c1.1,1.2,2.2,2.5,3.3,3.7C189.3,49.6,191.5,50.9,193.5,52.3"/>
	<path id="XMLID_145_" class="st3" d="M106.4,183.5c-1.2-1.7,1.4-3.5,2.6-1.8c0.7,1,1.3,1.9,2,2.9c1.6,2.3,4,4.8,5.1,7.4
		c1.2,1.7-1.4,3.5-2.6,1.8c-0.7-1-1.3-1.9-2-2.9C109.8,188.4,108.1,186,106.4,183.5"/>
	<path id="XMLID_28_" class="st3" d="M58.7,211.1c-1.2-1.7,1.4-3.5,2.6-1.8c0.7,1,1.3,1.9,2,2.9c1.6,2.3,4,4.8,5.1,7.4
		c1.2,1.7-1.4,3.5-2.6,1.8c-0.7-1-1.3-1.9-2-2.9C62.1,216,60.4,213.5,58.7,211.1"/>
	<path id="XMLID_26_" class="st3" d="M25.7,231c-2-0.7-1-3.6,1-2.9c1.1,0.4,2.2,0.7,3.3,1.1c2.7,0.9,6.1,1.5,8.5,2.8
		c2,0.7,1,3.6-1,2.9c-1.1-0.4-2.2-0.7-3.3-1.1C31.3,232.9,28.5,232,25.7,231"/>
	<path id="XMLID_23_" class="st3" d="M213.3,104.5c-1.1,1.7-3.7,0.1-2.6-1.7c0.6-1,1.3-2,1.9-2.9c1.5-2.4,2.9-5.5,4.9-7.6
		c1.1-1.8,3.7-0.1,2.6,1.7c-0.6,1-1.3,2-1.9,2.9C216.6,99.5,215,102,213.3,104.5"/>
	<path id="XMLID_144_" class="st4" d="M188.5,200.8c0.6,2-2.4,2.9-3,0.9c-0.3-1.1-0.7-2.2-1-3.3c-0.9-2.9-1.7-5.7-2.6-8.6
		c-0.6-2,2.4-2.9,3-0.9c0.3,1.1,0.7,2.2,1,3.3C186.7,194.9,188.2,198,188.5,200.8"/>
	<path id="XMLID_143_" class="st2" d="M137.1,37.6c1.4-1.5,3.7,0.6,2.3,2.1c-0.8,0.8-1.6,1.7-2.4,2.5c-2,2.2-4.1,4.4-6.1,6.6
		c-1.4,1.5-3.7-0.6-2.3-2.2C129.4,45.8,134.8,39.3,137.1,37.6"/>
	<path id="XMLID_142_" class="st1" d="M136.7,78.9c2,0.5,1.2,3.5-0.8,3c-1.1-0.3-2.2-0.6-3.4-0.8c-2.7-0.7-6.1-1-8.7-2.2
		c-2-0.5-1.2-3.5,0.8-3c1.1,0.3,2.2,0.6,3.4,0.8C130.9,77.4,133.8,78.2,136.7,78.9"/>
	<path id="XMLID_141_" class="st6" d="M136.2,99.3c1.6,1.5-0.6,3.6-2.2,2.2c-1.3-1.1-2.6-2.1-3.8-3.2c-1.8-1.5-3.9-3.3-5.3-5.2
		c-1.6-1.5,0.7-3.8,2.2-2.2c1.1,1.2,2.2,2.5,3.3,3.7C132.1,96.5,134.3,97.8,136.2,99.3"/>
	<path id="XMLID_19_" class="st4" d="M107.9,43.7c0.2-2.1,3.3-1.8,3.1,0.3c-0.1,1.2-0.2,2.3-0.3,3.5c-0.3,3-0.5,6-0.8,8.9
		c-0.2,2.1-3.3,1.8-3.1-0.3c0.1-1.2,0.2-2.3,0.3-3.5C107.3,49.8,107.1,46.4,107.9,43.7"/>
	<path id="XMLID_17_" class="st2" d="M143.7,197c-0.6-2.5-2.5-4.7-3-7.2c-0.7-2,2.1-2.8,3-1c0.7,1.4,1.3,2.9,2,4.3
		c1.1,2.4,1.5,4.9,2.1,7.5c0.7,2-2.5,3-2.9,1C144.5,200.1,144.1,198.6,143.7,197"/>
</g>
<text id="XMLID_18_" transform="matrix(0.9976 -6.975754e-02 6.975754e-02 0.9976 167.8483 98.4247)" class="st8 st9 st10"> </text>
<path id="XMLID_21_" class="st6" d="M230.9,45.7c-1.3-1.7,1.3-3.5,2.5-1.8c0.7,0.9,1.4,1.9,2.1,2.8c1.8,2.4,3.6,4.8,5.4,7.2
	c1.3,1.7-1.3,3.5-2.5,1.8c-0.7-0.9-1.4-1.9-2.1-2.8C234.6,50.6,232.2,48.2,230.9,45.7"/>
<path id="XMLID_154_" class="st1" d="M82.7,46.9c1.6-1.7,3.4,0.6,2.2,2.2c-1,1.3-2,2.6-3,4c-1.5,2-3.6,3.4-5.4,5.1
	c-1.5,1.6-3.8-0.8-2.2-2.2c1.2-1.1,2.5-2.2,3.7-3.3C79.9,51,80.8,48.4,82.7,46.9"/>
<path id="XMLID_153_" class="st4" d="M157.7,130.5c0.5-2,3.5-1.3,3,0.7c-0.3,1.1-0.5,2.2-0.8,3.4c-0.6,2.8-0.9,6.1-2,8.7
	c-0.5,2-3.5,1.3-3-0.7c0.3-1.1,0.5-2.2,0.8-3.4C156.4,136.3,157.1,133.4,157.7,130.5"/>
<path id="XMLID_152_" class="st4" d="M151.5,110.2c-2.1-0.2-1.8-3.3,0.3-3.1c1.2,0.1,2.3,0.2,3.5,0.3c3,0.2,6,0.4,9,0.7
	c2.1,0.2,1.8,3.3-0.3,3.1c-1.2-0.1-2.3-0.2-3.5-0.3C157.6,110.7,154.2,110.9,151.5,110.2"/>
<path id="XMLID_151_" class="st3" d="M58,157.4c2.2,0.6,1,3.3-1,3c-1.6-0.3-3.3-0.6-4.9-0.9c-2.4-0.4-4.7-1.6-7-2.5
	c-2.1-0.6-1-3.7,1-2.9c1.5,0.6,3.1,1.2,4.6,1.8C53.1,156.8,55.8,156.5,58,157.4"/>
<path id="XMLID_25_" class="st3" d="M174.3,50.6c2.2,0.6,1,3.3-1,3c-1.6-0.3-3.3-0.6-4.9-0.9c-2.4-0.4-4.7-1.6-7-2.5
	c-2.1-0.6-1-3.7,1-2.9c1.5,0.6,3.1,1.2,4.6,1.8C169.3,50,172,49.7,174.3,50.6"/>
<path id="XMLID_150_" class="st6" d="M74.8,98.6c-1.1,1.8-3.7,0.1-2.6-1.6c0.6-1,1.2-2,1.8-3c1.6-2.6,3.1-5.1,4.7-7.7
	c1.1-1.8,3.7-0.1,2.6,1.6c-0.6,1-1.2,2-1.8,3C78,93.4,76.7,96.5,74.8,98.6"/>
</svg>
