<?xml version="1.0" encoding="utf-8"?>
<!-- Generator: Adobe Illustrator 19.0.0, SVG Export Plug-In . SVG Version: 6.00 Build 0)  -->
<!DOCTYPE svg PUBLIC "-//W3C//DTD SVG 1.1//EN" "http://www.w3.org/Graphics/SVG/1.1/DTD/svg11.dtd">
<svg version="1.1" id="Layer_1" xmlns="http://www.w3.org/2000/svg" xmlns:xlink="http://www.w3.org/1999/xlink" x="0px" y="0px"
	 viewBox="-181 272.2 248.8 248.8" style="enable-background:new -181 272.2 248.8 248.8;" xml:space="preserve">
<style type="text/css">
	.st0{clip-path:url(#SVGID_2_);fill:#2AABE2;}
	.st1{fill:#EC1E5C;}
	.st2{fill:#90C742;}
	.st3{fill:#FCEE22;}
	.st4{fill:#AA2179;}
	.st5{fill:#F5EC3A;}
	.st6{fill:#EC195C;}
	.st7{fill:#EF3A68;}
	.st8{fill:#8EC640;}
	.st9{fill:#F26838;}
	.st10{fill:#99CA3D;}
	.st11{fill:#FFFFFF;}
	.st12{font-family:'OldSchoolUnitedStencil';}
	.st13{font-size:27.0079px;}
	.st14{fill:#EB215D;}
</style>
<g id="XMLID_15_">
	<g>
		<defs>
			<rect id="SVGID_1_" x="-653" y="177.8" width="1244.9" height="358.5"/>
		</defs>
		<clipPath id="SVGID_2_">
			<use xlink:href="#SVGID_1_"  style="overflow:visible;"/>
		</clipPath>
		<path class="st0" d="M-30.5,535.3C308.3,535.3,583,456.8,583,360S308.3,184.7-30.5,184.7S-644,263.3-644,360.1
			S-369.3,535.3-30.5,535.3"/>
	</g>
</g>
<g id="XMLID_94_">
	<path id="XMLID_86_" class="st1" d="M-166.3,472.6c-1.4,1.8-3.5-0.3-2.4-2c0.9-1.4,1.8-2.8,2.6-4.2c1.3-2.1,3.2-3.7,4.9-5.5
		c1.4-1.7,3.8,0.5,2.4,2c-1.1,1.2-2.3,2.4-3.4,3.6C-163.9,468.2-164.6,470.9-166.3,472.6"/>
	<path id="XMLID_33_" class="st1" d="M54,514.7c-1.4,1.8-3.5-0.3-2.4-2c0.9-1.4,1.8-2.8,2.6-4.2c1.3-2.1,3.2-3.7,4.9-5.5
		c1.4-1.7,3.8,0.5,2.4,2c-1.1,1.2-2.3,2.4-3.4,3.6C56.4,510.4,55.7,513,54,514.7"/>
	<path id="XMLID_85_" class="st2" d="M41.7,347c-0.9,1.9-3.7,0.6-2.8-1.3c0.5-1.1,0.9-2.1,1.4-3.2c1.2-2.6,2.1-5.8,3.7-8.2
		c0.9-1.9,3.7-0.6,2.8,1.3c-0.5,1.1-1,2.1-1.4,3.2C44.2,341.6,43,344.3,41.7,347"/>
	<path id="XMLID_84_" class="st3" d="M51.8,285.1c0.9-1.9,3.7-0.5,2.8,1.4c-0.5,1-1,2.1-1.5,3.1c-1.3,2.7-2.6,5.4-4,8.1
		c-0.9,1.9-3.7,0.5-2.8-1.4c0.5-1,1-2.1,1.5-3.1C49.1,290.6,50.1,287.4,51.8,285.1"/>
	<path id="XMLID_83_" class="st4" d="M31,309.1c0.9-1.9,3.7-0.5,2.8,1.4c-0.5,1-1,2.1-1.5,3.1c-1.3,2.7-2.6,5.4-4,8.1
		c-0.9,1.9-3.7,0.5-2.8-1.4c0.5-1,1-2.1,1.5-3.1C28.3,314.6,29.3,311.4,31,309.1"/>
	<path id="XMLID_2_" class="st2" d="M-8.3,365.3c1.2,1.8-1.5,3.4-2.6,1.7c-0.6-1-1.3-1.9-1.9-2.9c-1.7-2.5-3.3-5-5-7.5
		c-1.2-1.8,1.5-3.4,2.6-1.7c0.6,1,1.3,1.9,1.9,2.9C-11.8,360.2-9.5,362.7-8.3,365.3"/>
	<path id="XMLID_82_" class="st5" d="M-76.1,344.8c1.3-1.9,3.5,0.2,2.4,2c-0.8,1.4-1.7,2.9-2.5,4.3c-1.2,2.1-3.1,3.9-4.7,5.7
		c-1.3,1.8-3.8-0.3-2.4-1.9c1.1-1.2,2.2-2.5,3.3-3.7C-78.4,349.2-77.8,346.5-76.1,344.8"/>
	<path id="XMLID_81_" class="st6" d="M27.6,478.6c0,0,0.1,0,0.1-0.1c1.5-0.5,3-1.1,4.4-1.6c2.4-0.9,4.6-2.4,6.8-3.8
		c1.6-0.8,2.7,1,2,2.1c-1.4,0.7-2.8,1.5-4.1,2.2c-0.5,0.2-0.9,0.5-1.4,0.8l-3.4,1.6c-0.8,0.3-1.5,0.6-2.3,0.8
		C28.3,481.3,27.1,479.7,27.6,478.6"/>
	<path id="XMLID_30_" class="st6" d="M-79,483.4C-79,483.4-78.9,483.4-79,483.4c1.5,0.9,2.8,1.7,4.2,2.5c2.2,1.3,4.8,2,7.2,2.8
		c1.6,0.7,1,2.7-0.4,2.9c-1.5-0.6-2.9-1.2-4.4-1.8c-0.5-0.2-1-0.4-1.5-0.6l-3.4-1.6c-0.7-0.4-1.4-0.8-2.1-1.3
		C-80.7,485.7-80.1,483.7-79,483.4"/>
	<path id="XMLID_80_" class="st2" d="M12.3,286.4c1.7,1.2-0.1,3.7-1.8,2.6c-0.9-0.7-1.9-1.3-2.8-2c-2.3-1.6-5.3-3.1-7.3-5.2
		c-1.7-1.2,0.1-3.7,1.8-2.6c0.9,0.7,1.9,1.3,2.8,2C7.4,283,9.9,284.7,12.3,286.4"/>
	<path id="XMLID_79_" class="st7" d="M8.7,383.7c-0.8,1.9-3.7,0.7-2.9-1.2c0.5-1.1,0.9-2.1,1.4-3.2c1.2-2.8,2.3-5.5,3.5-8.3
		c0.8-1.9,3.7-0.7,2.9,1.2c-0.5,1.1-0.9,2.1-1.4,3.2C11.1,378.1,10.2,381.3,8.7,383.7"/>
	<path id="XMLID_78_" class="st4" d="M-13.4,287.4c1.3-1.9,3.5,0.2,2.4,2c-0.8,1.4-1.7,2.9-2.5,4.3c-1.2,2.1-3.1,3.9-4.7,5.7
		c-1.3,1.8-3.8-0.3-2.4-1.9c1.1-1.2,2.2-2.5,3.3-3.7C-15.7,291.9-15.1,289.2-13.4,287.4"/>
	<path id="XMLID_77_" class="st8" d="M-127.1,468.9c-0.7,1.9-3.6,0.9-2.9-1.1c0.4-1.1,0.8-2.2,1.2-3.3c1-2.8,2.1-5.6,3.1-8.4
		c0.7-1.9,3.6-0.9,2.9,1.1c-0.4,1.1-0.8,2.2-1.2,3.3C-124.9,463.1-125.6,466.5-127.1,468.9"/>
	<path id="XMLID_36_" class="st8" d="M5.6,402c-1.6-1.3,0.3-3.7,1.9-2.4c0.9,0.7,1.8,1.4,2.7,2.2c2.3,1.9,4.7,3.7,7,5.6
		c1.6,1.3-0.3,3.7-1.9,2.4c-0.9-0.7-1.8-1.5-2.7-2.2C10.4,405.8,7.4,404.2,5.6,402"/>
	<path id="XMLID_76_" class="st6" d="M41.6,398.9c-1,1.9-3.7,0.3-2.7-1.5c0.5-1,1.1-2,1.6-3.1c1.4-2.6,2.8-5.3,4.2-7.9
		c1-1.9,3.7-0.3,2.7,1.5c-0.5,1-1.1,2-1.6,3.1C44.4,393.4,43.3,396.6,41.6,398.9"/>
	<path id="XMLID_75_" class="st1" d="M-52,409.5c1.7-1.2,3.5,1.2,1.8,2.5c-0.9,0.7-1.9,1.4-2.8,2.1c-2.3,1.7-4.7,4.1-7.2,5.4
		c-1.7,1.2-3.5-1.2-1.8-2.5c0.9-0.7,1.9-1.4,2.8-2.1C-56.8,413-54.4,411.3-52,409.5"/>
	<path id="XMLID_3_" class="st1" d="M18.6,354.9c1.6,1.3-0.2,3.7-1.9,2.4c-0.9-0.7-1.8-1.4-2.8-2.1c-2.2-1.7-5.2-3.4-7.1-5.5
		c-1.6-1.3,0.2-3.7,1.9-2.5c0.9,0.7,1.8,1.4,2.7,2.1C13.9,351.3,16.2,353.1,18.6,354.9"/>
	<path id="XMLID_74_" class="st2" d="M-67.6,297.8c1,2-1.8,3.1-2.8,1.3c-0.8-1.4-1.6-2.9-2.4-4.3c-1.1-2-2.5-4.5-3.1-6.7
		c-1-1.9,2-3.3,2.8-1.3c0.6,1.5,1.2,3.1,1.8,4.6C-70.5,293.7-68.9,295.7-67.6,297.8"/>
	<path id="XMLID_73_" class="st4" d="M-81.8,373.6c-0.5-2,2.5-2.8,3-0.7c0.3,1.1,0.5,2.3,0.8,3.4c0.7,2.7,2,5.9,2.1,8.7
		c0.5,2-2.5,2.8-3,0.7c-0.3-1.1-0.5-2.3-0.8-3.4C-80.4,379.4-81.1,376.5-81.8,373.6"/>
	<path id="XMLID_72_" class="st3" d="M-166,414c-0.5-2,2.5-2.8,3-0.7c0.3,1.1,0.5,2.3,0.8,3.4c0.7,2.7,2,5.9,2.1,8.7
		c0.5,2-2.5,2.8-3,0.7c-0.3-1.1-0.5-2.3-0.8-3.4C-164.6,419.9-165.3,417-166,414"/>
	<path id="XMLID_71_" class="st4" d="M-110.8,283.7c0.1-2.1,3.2-2,3.1,0.1c0,1.2-0.1,2.3-0.1,3.5c-0.1,3-0.3,6-0.4,9
		c-0.1,2.1-3.2,2-3.1-0.1c0-1.2,0.1-2.3,0.1-3.5C-111,289.8-111.4,286.4-110.8,283.7"/>
	<path id="XMLID_70_" class="st9" d="M3.3,441.4c-1.4,1.8-3.5-0.3-2.4-2c0.9-1.4,1.7-2.8,2.6-4.2c1.3-2.1,3.2-3.7,4.9-5.5
		c1.3-1.7,3.8,0.5,2.4,2c-1.1,1.2-2.3,2.4-3.4,3.6C5.7,437,5,439.7,3.3,441.4"/>
	<path id="XMLID_29_" class="st9" d="M-43,500.1c-1.4,1.8-3.5-0.3-2.4-2c0.9-1.4,1.7-2.8,2.6-4.2c1.3-2.1,3.2-3.7,4.9-5.5
		c1.3-1.7,3.8,0.5,2.4,2c-1.1,1.2-2.3,2.4-3.4,3.6C-40.6,495.7-41.3,498.4-43,500.1"/>
	<path id="XMLID_35_" class="st9" d="M-154.3,477.2c-1.6-1.7,0.9-3.4,2.4-2c1.3,1.1,2.5,2.2,3.7,3.3c1.8,1.6,3.2,3.8,4.7,5.7
		c1.5,1.6-1.1,3.7-2.4,2c-1-1.3-2-2.6-3-4C-150.4,480.3-152.9,479.2-154.3,477.2"/>
	<path id="XMLID_22_" class="st9" d="M-84.8,437.7c-2.3,0.3-2.2-2.7-0.2-3.1c1.6-0.3,3.2-0.7,4.9-1c2.4-0.5,4.9-0.3,7.4-0.3
		c2.2-0.2,2.3,3.1,0.2,3.1c-1.7,0-3.3,0-5,0C-80,436.4-82.4,437.7-84.8,437.7"/>
	<path id="XMLID_69_" class="st2" d="M-95.3,420.7c-1,1.9-3.7,0.3-2.7-1.5c0.5-1,1.1-2,1.6-3.1c1.4-2.6,2.8-5.3,4.2-7.9
		c1-1.9,3.7-0.3,2.7,1.5C-90,410.7-93.6,418.4-95.3,420.7"/>
	<path id="XMLID_68_" class="st1" d="M-130.1,302.2c1.7,1.2-0.1,3.7-1.8,2.5c-0.9-0.7-1.9-1.3-2.8-2c-2.3-1.6-5.3-3.1-7.3-5.1
		c-1.7-1.2,0.1-3.7,1.8-2.5c0.9,0.7,1.9,1.3,2.8,2C-134.9,298.8-132.5,300.5-130.1,302.2"/>
	<path id="XMLID_67_" class="st3" d="M-140.4,366.2c1,2-1.8,3.1-2.8,1.3c-0.8-1.4-1.6-2.9-2.4-4.3c-1.2-2-2.5-4.5-3.1-6.7
		c-1-1.9,2-3.3,2.8-1.3c0.6,1.5,1.2,3.1,1.8,4.6C-143.3,362.1-141.7,364.1-140.4,366.2"/>
	<path id="XMLID_66_" class="st10" d="M33.5,425c-0.9-2,1.9-3.1,2.9-1.2c0.8,1.5,1.5,2.9,2.3,4.4c1.1,2.1,2.4,4.5,2.9,6.8
		c0.9,2-2.2,3.2-2.9,1.2c-0.5-1.6-1.1-3.1-1.6-4.7C36.3,429.2,34.8,427.1,33.5,425"/>
	<path id="XMLID_65_" class="st4" d="M-97.8,454.9c-0.9-2,1.9-3.1,2.9-1.2c0.8,1.5,1.5,2.9,2.3,4.4c1.1,2.1,2.4,4.5,2.9,6.8
		c0.9,2-2.2,3.2-2.9,1.2c-0.5-1.6-1.1-3.1-1.6-4.7C-95,459.1-96.5,457-97.8,454.9"/>
	<path id="XMLID_24_" class="st4" d="M-163.1,374.5c1.8-1.3,3.4,1.3,1.7,2.6c-1.3,1-2.6,2-3.9,3c-1.8,1.4-4,3.1-6.2,4
		c-1.8,1.2-3.6-1.5-1.7-2.6c1.4-0.8,2.9-1.6,4.3-2.4C-166.7,377.9-165,376.1-163.1,374.5"/>
	<path id="XMLID_27_" class="st4" d="M-100,504c1.8-1.3,3.4,1.3,1.7,2.6c-1.3,1-2.6,2-3.9,3c-1.8,1.4-4,3.1-6.2,4
		c-1.8,1.2-3.6-1.5-1.7-2.6c1.4-0.8,2.9-1.6,4.3-2.4C-103.7,507.5-101.9,505.6-100,504"/>
	<path id="XMLID_64_" class="st9" d="M-156.1,330.5c0.9-1.9,3.7-0.5,2.8,1.4c-0.5,1-1,2.1-1.5,3.1c-1.3,2.7-2.6,5.4-4,8.1
		c-0.9,1.9-3.7,0.5-2.8-1.4c0.5-1,1-2.1,1.5-3.1C-158.8,336-157.7,332.8-156.1,330.5"/>
	<path id="XMLID_63_" class="st9" d="M-161.7,283.4c0.9-1.9,3.7-0.5,2.8,1.4c-0.5,1-1,2.1-1.5,3.1c-1.3,2.7-2.6,5.4-4,8.1
		c-0.9,1.9-3.7,0.5-2.8-1.4c0.5-1,1-2.1,1.5-3.1C-164.4,288.9-163.4,285.7-161.7,283.4"/>
	<path id="XMLID_62_" class="st3" d="M50.6,459.2c-1,1.9-3.7,0.3-2.7-1.5c0.5-1,1.1-2,1.6-3.1c1.4-2.6,2.8-5.3,4.2-7.9
		c1-1.9,3.7-0.3,2.7,1.5c-0.5,1-1.1,2-1.6,3.1C53.5,453.8,52.3,457,50.6,459.2"/>
	<path id="XMLID_31_" class="st3" d="M-5.4,499.8c-1.3-1.7,1.2-3.5,2.5-1.9c0.7,0.9,1.4,1.8,2.1,2.7c1.8,2.4,3.7,4.7,5.5,7.1
		c1.3,1.7-1.2,3.5-2.5,1.9c-0.7-0.9-1.4-1.8-2.1-2.7C-1.6,504.6-4.1,502.3-5.4,499.8"/>
	<path id="XMLID_61_" class="st4" d="M50.2,478.3c-0.2-2.6,0.4-5.1,0.7-7.7c0.1-2.1,3.4-1.9,3.1,0.1c-0.2,1.6-0.4,3.1-0.6,4.7
		c-0.3,2.6,0.6,5.3,0.2,7.8c-0.1,2.2-3,1.9-3.1-0.1C50.4,481.5,50.3,479.9,50.2,478.3"/>
	<path id="XMLID_32_" class="st4" d="M-151.3,430.2c1.3-2.2,3.2-4,5-5.9c1.3-1.7,3.9,0.3,2.5,1.9c-1.1,1.2-2.1,2.3-3.2,3.5
		c-1.7,1.9-2.5,4.7-4.2,6.5c-1.3,1.7-3.5-0.1-2.5-1.9C-152.9,432.9-152.1,431.5-151.3,430.2"/>
	<path id="XMLID_149_" class="st1" d="M-140.5,384.6c-1-2,1.8-3.1,2.8-1.3c0.8,1.4,1.6,2.9,2.4,4.3c1.2,2,2.5,4.5,3.1,6.7
		c1,1.9-2,3.3-2.8,1.3c-0.6-1.5-1.2-3.1-1.8-4.6C-137.6,388.6-139.2,386.6-140.5,384.6"/>
	<path id="XMLID_148_" class="st2" d="M-22.1,447.1c0.9,2-1.9,3.1-2.9,1.2c-0.8-1.5-1.5-2.9-2.3-4.4c-1.1-2.1-2.4-4.5-2.9-6.8
		c-0.9-2,2.2-3.2,2.9-1.2c0.5,1.6,1.1,3.1,1.6,4.7C-24.9,443-23.4,445-22.1,447.1"/>
	<path id="XMLID_34_" class="st2" d="M21,506.4c-1.1,1.9-3.6,0.3-2.7-1.6c0.7-1.5,1.5-3,2.2-4.4c1-2.1,2.3-4.6,3.8-6.3
		c1.1-1.9,3.9-0.1,2.6,1.6c-1,1.4-1.9,2.7-2.9,4.1C22.8,501.7,22,504.1,21,506.4"/>
	<path id="XMLID_147_" class="st3" d="M-110.3,392.4c-1.9,1-3.2-1.9-1.4-2.8c1-0.5,2.1-1,3.1-1.6c2.7-1.4,5.3-2.7,8-4
		c1.9-1,3.2,1.9,1.4,2.8c-1,0.5-2.1,1-3.1,1.6C-104.8,389.6-107.6,391.6-110.3,392.4"/>
	<path id="XMLID_140_" class="st4" d="M-131,352.2c-0.3-2.6,0.2-5.2,0.5-7.7c0-2.1,3.3-2,3.1,0c-0.2,1.6-0.3,3.1-0.5,4.7
		c-0.3,2.6,0.8,5.2,0.5,7.7c0,2.2-2.9,2-3.1,0C-130.7,355.3-130.8,353.8-131,352.2"/>
	<path id="XMLID_60_" class="st2" d="M-171.9,320.3c-0.3,2.6,0.8,5.2,0.5,7.7c0,2.2-2.9,2-3.1,0c-0.2-1.6-0.3-3.1-0.5-4.7
		c-0.3-2.6,0.2-5.2,0.5-7.7c0-2.1,3.3-2,3.1,0C-171.6,317.2-171.8,318.8-171.9,320.3"/>
	<path id="XMLID_146_" class="st2" d="M12.5,324.5c1.6,1.5-0.6,3.6-2.2,2.2c-1.3-1.1-2.5-2.1-3.8-3.1c-1.8-1.5-3.9-3.3-5.3-5.2
		c-1.6-1.5,0.7-3.8,2.2-2.2c1.1,1.2,2.2,2.5,3.3,3.7C8.3,321.8,10.5,323.1,12.5,324.5"/>
	<path id="XMLID_145_" class="st3" d="M-74.6,455.7c-1.2-1.7,1.4-3.5,2.6-1.8c0.7,1,1.3,1.9,2,2.9c1.6,2.3,4,4.8,5.1,7.4
		c1.2,1.7-1.4,3.5-2.6,1.8c-0.7-1-1.3-1.9-2-2.9C-71.2,460.6-72.9,458.2-74.6,455.7"/>
	<path id="XMLID_28_" class="st3" d="M-122.3,483.3c-1.2-1.7,1.4-3.5,2.6-1.8c0.7,1,1.3,1.9,2,2.9c1.6,2.3,4,4.8,5.1,7.4
		c1.2,1.7-1.4,3.5-2.6,1.8c-0.7-1-1.3-1.9-2-2.9C-118.9,488.2-120.6,485.7-122.3,483.3"/>
	<path id="XMLID_26_" class="st3" d="M-155.3,503.2c-2-0.7-1-3.6,1-2.9c1.1,0.4,2.2,0.7,3.3,1.1c2.7,0.9,6.1,1.5,8.5,2.8
		c2,0.7,1,3.6-1,2.9c-1.1-0.4-2.2-0.7-3.3-1.1C-149.7,505.1-152.5,504.2-155.3,503.2"/>
	<path id="XMLID_23_" class="st3" d="M32.3,376.7c-1.1,1.7-3.7,0.1-2.6-1.7c0.6-1,1.3-2,1.9-2.9c1.5-2.4,2.9-5.5,4.9-7.6
		c1.1-1.8,3.7-0.1,2.6,1.7c-0.6,1-1.3,2-1.9,2.9C35.6,371.7,34,374.2,32.3,376.7"/>
	<path id="XMLID_144_" class="st4" d="M7.5,473c0.6,2-2.4,2.9-3,0.9c-0.3-1.1-0.7-2.2-1-3.3c-0.9-2.9-1.7-5.7-2.6-8.6
		c-0.6-2,2.4-2.9,3-0.9c0.3,1.1,0.7,2.2,1,3.3C5.7,467.1,7.2,470.2,7.5,473"/>
	<path id="XMLID_143_" class="st2" d="M-43.9,309.8c1.4-1.5,3.7,0.6,2.3,2.1c-0.8,0.8-1.6,1.7-2.4,2.5c-2,2.2-4.1,4.4-6.1,6.6
		c-1.4,1.5-3.7-0.6-2.3-2.2C-51.6,318-46.2,311.5-43.9,309.8"/>
	<path id="XMLID_142_" class="st1" d="M-44.3,351.1c2,0.5,1.2,3.5-0.8,3c-1.1-0.3-2.2-0.6-3.4-0.8c-2.7-0.7-6.1-1-8.7-2.2
		c-2-0.5-1.2-3.5,0.8-3c1.1,0.3,2.2,0.6,3.4,0.8C-50.1,349.6-47.2,350.4-44.3,351.1"/>
	<path id="XMLID_141_" class="st9" d="M-44.8,371.5c1.6,1.5-0.6,3.6-2.2,2.2c-1.3-1.1-2.6-2.1-3.8-3.2c-1.8-1.5-3.9-3.3-5.3-5.2
		c-1.6-1.5,0.7-3.8,2.2-2.2c1.1,1.2,2.2,2.5,3.3,3.7C-48.9,368.7-46.7,370-44.8,371.5"/>
	<path id="XMLID_19_" class="st4" d="M-73.1,315.9c0.2-2.1,3.3-1.8,3.1,0.3c-0.1,1.2-0.2,2.3-0.3,3.5c-0.3,3-0.5,6-0.8,8.9
		c-0.2,2.1-3.3,1.8-3.1-0.3c0.1-1.2,0.2-2.3,0.3-3.5C-73.7,322-73.9,318.6-73.1,315.9"/>
	<path id="XMLID_17_" class="st2" d="M-37.3,469.2c-0.6-2.5-2.5-4.7-3-7.2c-0.7-2,2.1-2.8,3-1c0.7,1.4,1.3,2.9,2,4.3
		c1.1,2.4,1.5,4.9,2.1,7.5c0.7,2-2.5,3-2.9,1C-36.5,472.3-36.9,470.8-37.3,469.2"/>
</g>
<text id="XMLID_18_" transform="matrix(0.9976 -6.975503e-02 6.975503e-02 0.9976 -13.1515 370.6252)" class="st11 st12 st13"> </text>
<path id="XMLID_21_" class="st9" d="M49.9,317.9c-1.3-1.7,1.3-3.5,2.5-1.8c0.7,0.9,1.4,1.9,2.1,2.8c1.8,2.4,3.6,4.8,5.4,7.2
	c1.3,1.7-1.3,3.5-2.5,1.8c-0.7-0.9-1.4-1.9-2.1-2.8C53.6,322.8,51.2,320.4,49.9,317.9"/>
<path id="XMLID_154_" class="st14" d="M-98.3,319.1c1.6-1.7,3.4,0.6,2.2,2.2c-1,1.3-2,2.6-3,4c-1.5,2-3.6,3.4-5.4,5.1
	c-1.5,1.6-3.8-0.8-2.2-2.2c1.2-1.1,2.5-2.2,3.7-3.3C-101.1,323.2-100.2,320.6-98.3,319.1"/>
<path id="XMLID_153_" class="st4" d="M-23.3,402.7c0.5-2,3.5-1.3,3,0.7c-0.3,1.1-0.5,2.2-0.8,3.4c-0.6,2.8-0.9,6.1-2,8.7
	c-0.5,2-3.5,1.3-3-0.7c0.3-1.1,0.5-2.2,0.8-3.4C-24.6,408.5-23.9,405.6-23.3,402.7"/>
<path id="XMLID_152_" class="st4" d="M-29.5,382.4c-2.1-0.2-1.8-3.3,0.3-3.1c1.2,0.1,2.3,0.2,3.5,0.3c3,0.2,6,0.4,9,0.7
	c2.1,0.2,1.8,3.3-0.3,3.1c-1.2-0.1-2.3-0.2-3.5-0.3C-23.4,382.9-26.8,383.1-29.5,382.4"/>
<path id="XMLID_151_" class="st3" d="M-123,429.6c2.2,0.6,1,3.3-1,3c-1.6-0.3-3.3-0.6-4.9-0.9c-2.4-0.4-4.7-1.6-7-2.5
	c-2.1-0.6-1-3.7,1-2.9c1.5,0.6,3.1,1.2,4.6,1.8C-127.9,429-125.2,428.7-123,429.6"/>
<path id="XMLID_25_" class="st3" d="M-6.7,322.8c2.2,0.6,1,3.3-1,3c-1.6-0.3-3.3-0.6-4.9-0.9c-2.4-0.4-4.7-1.6-7-2.5
	c-2.1-0.6-1-3.7,1-2.9c1.5,0.6,3.1,1.2,4.6,1.8C-11.7,322.2-9,321.9-6.7,322.8"/>
<path id="XMLID_150_" class="st9" d="M-106.2,370.8c-1.1,1.8-3.7,0.1-2.6-1.6c0.6-1,1.2-2,1.8-3c1.6-2.6,3.1-5.1,4.7-7.7
	c1.1-1.8,3.7-0.1,2.6,1.6c-0.6,1-1.2,2-1.8,3C-103,365.6-104.3,368.7-106.2,370.8"/>
<rect x="-211" y="538.7" class="st11" width="62.1" height="37.5"/>
</svg>
