<?xml version="1.0" encoding="utf-8"?>
<!-- Generator: Adobe Illustrator 19.0.0, SVG Export Plug-In . SVG Version: 6.00 Build 0)  -->
<!DOCTYPE svg PUBLIC "-//W3C//DTD SVG 1.1//EN" "http://www.w3.org/Graphics/SVG/1.1/DTD/svg11.dtd">
<svg version="1.1" id="Layer_1" xmlns="http://www.w3.org/2000/svg" xmlns:xlink="http://www.w3.org/1999/xlink" x="0px" y="0px"
	 viewBox="-158.7 343.5 209.3 115.3" style="enable-background:new -158.7 343.5 209.3 115.3;" xml:space="preserve">
<style type="text/css">
	.st0{display:none;}
	.st1{display:inline;}
	.st2{clip-path:url(#SVGID_2_);fill:#ED1B5B;}
	.st3{clip-path:url(#SVGID_4_);fill:#8FC741;}
	.st4{clip-path:url(#SVGID_6_);fill:#FFF200;}
	.st5{clip-path:url(#SVGID_8_);fill:#EF3963;}
	.st6{clip-path:url(#SVGID_10_);fill:#FFF200;}
	.st7{clip-path:url(#SVGID_12_);fill:#ED145B;}
	.st8{clip-path:url(#SVGID_14_);fill:#8FC741;}
	.st9{clip-path:url(#SVGID_16_);fill:#FFFFFF;}
	.st10{clip-path:url(#SVGID_18_);fill:#AB0677;}
	.st11{clip-path:url(#SVGID_20_);fill:#8DC63F;}
	.st12{clip-path:url(#SVGID_22_);fill:#ED145B;}
	.st13{clip-path:url(#SVGID_24_);fill:#FFFFFF;}
	.st14{clip-path:url(#SVGID_26_);fill:#8FC741;}
	.st15{clip-path:url(#SVGID_28_);fill:#AB0677;}
	.st16{clip-path:url(#SVGID_30_);fill:#FFF200;}
	.st17{clip-path:url(#SVGID_32_);fill:#AB0677;}
	.st18{clip-path:url(#SVGID_34_);fill:#ED1B5B;}
	.st19{clip-path:url(#SVGID_36_);fill:#8FC741;}
	.st20{clip-path:url(#SVGID_38_);fill:#ED1B5B;}
	.st21{clip-path:url(#SVGID_40_);fill:#FFF200;}
	.st22{clip-path:url(#SVGID_42_);fill:#8FC741;}
	.st23{clip-path:url(#SVGID_44_);fill:#AB0677;}
	.st24{clip-path:url(#SVGID_46_);fill:#FFFFFF;}
	.st25{clip-path:url(#SVGID_48_);fill:#FFFFFF;}
	.st26{clip-path:url(#SVGID_50_);fill:#FFF200;}
	.st27{clip-path:url(#SVGID_52_);fill:#AB0677;}
	.st28{clip-path:url(#SVGID_54_);fill:#8FC741;}
	.st29{fill:#FFFFFF;}
	.st30{font-family:'Vanilla';}
	.st31{font-size:27.0079px;}
	.st32{font-family:'OldSchoolUnitedStencil';}
</style>
<g id="XMLID_94_" class="st0">
	<g class="st1">
		<defs>
			<rect id="SVGID_1_" x="-419.4" y="300" width="487.2" height="187"/>
		</defs>
		<clipPath id="SVGID_2_">
			<use xlink:href="#SVGID_1_"  style="overflow:visible;"/>
		</clipPath>
		<path id="XMLID_86_" class="st2" d="M59.3,440.1c1.3-1.9,3.5,0.2,2.4,2c-0.8,1.4-1.7,2.9-2.5,4.3c-1.2,2.1-3.1,3.9-4.7,5.7
			c-1.3,1.8-3.8-0.3-2.4-1.9c1.1-1.2,2.2-2.5,3.3-3.7C57,444.6,57.6,441.9,59.3,440.1"/>
	</g>
	<g class="st1">
		<defs>
			<rect id="SVGID_3_" x="-419.4" y="300" width="487.2" height="187"/>
		</defs>
		<clipPath id="SVGID_4_">
			<use xlink:href="#SVGID_3_"  style="overflow:visible;"/>
		</clipPath>
		<path id="XMLID_85_" class="st3" d="M55.8,420.3c1.7,1.2-0.1,3.7-1.8,2.5c-0.9-0.7-1.9-1.3-2.8-2c-2.3-1.6-5.3-3.1-7.3-5.2
			c-1.7-1.2,0.1-3.7,1.8-2.5c0.9,0.7,1.9,1.3,2.8,2C51,416.9,53.4,418.6,55.8,420.3"/>
	</g>
	<g class="st1">
		<defs>
			<rect id="SVGID_5_" x="-419.4" y="300" width="487.2" height="187"/>
		</defs>
		<clipPath id="SVGID_6_">
			<use xlink:href="#SVGID_5_"  style="overflow:visible;"/>
		</clipPath>
		<path id="XMLID_84_" class="st4" d="M51.8,327.9c0.9-1.9,3.7-0.5,2.8,1.4c-0.5,1-1,2.1-1.5,3.1c-1.3,2.7-2.6,5.4-4,8.1
			c-0.9,1.9-3.7,0.5-2.8-1.4c0.5-1,1-2.1,1.5-3.1C49.1,333.4,50.1,330.2,51.8,327.9"/>
	</g>
	<g class="st1">
		<defs>
			<rect id="SVGID_7_" x="-419.4" y="300" width="487.2" height="187"/>
		</defs>
		<clipPath id="SVGID_8_">
			<use xlink:href="#SVGID_7_"  style="overflow:visible;"/>
		</clipPath>
		<path id="XMLID_83_" class="st5" d="M34.3,380.6c0.9-1.9,3.7-0.5,2.8,1.4c-0.5,1-1,2.1-1.5,3.1c-1.3,2.7-2.6,5.4-4,8.1
			c-0.9,1.9-3.7,0.5-2.8-1.4c0.5-1,1-2.1,1.5-3.1C31.6,386.1,32.6,382.9,34.3,380.6"/>
	</g>
	<g class="st1">
		<defs>
			<rect id="SVGID_9_" x="-419.4" y="300" width="487.2" height="187"/>
		</defs>
		<clipPath id="SVGID_10_">
			<use xlink:href="#SVGID_9_"  style="overflow:visible;"/>
		</clipPath>
		<path id="XMLID_82_" class="st6" d="M27.1,444.8c1.3-1.9,3.5,0.2,2.4,2c-0.8,1.4-1.7,2.9-2.5,4.3c-1.2,2.1-3.1,3.9-4.7,5.7
			c-1.3,1.8-3.8-0.3-2.4-1.9c1.1-1.2,2.2-2.5,3.3-3.7C24.8,449.3,25.4,446.6,27.1,444.8"/>
	</g>
	<g class="st1">
		<defs>
			<rect id="SVGID_11_" x="-419.4" y="300" width="487.2" height="187"/>
		</defs>
		<clipPath id="SVGID_12_">
			<use xlink:href="#SVGID_11_"  style="overflow:visible;"/>
		</clipPath>
		<path id="XMLID_81_" class="st7" d="M28.1,324.9v0.1c-0.2,1.6-0.3,3.1-0.5,4.7c-0.3,2.6,0.2,5.2,0.5,7.7c0,1.8-2,2-2.8,0.9
			c-0.1-1.6-0.2-3.1-0.2-4.7c0-0.5-0.1-1-0.1-1.6v-3.7c0-0.8,0.1-1.6,0.3-2.4C25.3,324.3,27.3,324,28.1,324.9"/>
	</g>
	<g class="st1">
		<defs>
			<rect id="SVGID_13_" x="-419.4" y="300" width="487.2" height="187"/>
		</defs>
		<clipPath id="SVGID_14_">
			<use xlink:href="#SVGID_13_"  style="overflow:visible;"/>
		</clipPath>
		<path id="XMLID_80_" class="st8" d="M12.3,329.2c1.7,1.2-0.1,3.7-1.8,2.6c-0.9-0.7-1.9-1.3-2.8-2c-2.3-1.6-5.3-3.1-7.3-5.2
			c-1.7-1.2,0.1-3.7,1.8-2.6c0.9,0.7,1.9,1.3,2.8,2C7.4,325.8,9.9,327.5,12.3,329.2"/>
	</g>
	<g class="st1">
		<defs>
			<rect id="SVGID_15_" x="-419.4" y="300" width="487.2" height="187"/>
		</defs>
		<clipPath id="SVGID_16_">
			<use xlink:href="#SVGID_15_"  style="overflow:visible;"/>
		</clipPath>
		<path id="XMLID_79_" class="st9" d="M-7.5,344.6c0.8-2,3.6-0.8,2.9,1.2c-0.4,1.1-0.8,2.2-1.3,3.2c-1.1,2.8-2.2,5.6-3.2,8.4
			c-0.8,2-3.6,0.8-2.9-1.2c0.4-1.1,0.8-2.2,1.3-3.2C-9.7,350.3-9,347.1-7.5,344.6"/>
	</g>
	<g class="st1">
		<defs>
			<rect id="SVGID_17_" x="-419.4" y="300" width="487.2" height="187"/>
		</defs>
		<clipPath id="SVGID_18_">
			<use xlink:href="#SVGID_17_"  style="overflow:visible;"/>
		</clipPath>
		<path id="XMLID_78_" class="st10" d="M-13.4,330.2c1.3-1.9,3.5,0.2,2.4,2c-0.8,1.4-1.7,2.9-2.5,4.3c-1.2,2.1-3.1,3.9-4.7,5.7
			c-1.3,1.8-3.8-0.3-2.4-1.9c1.1-1.2,2.2-2.5,3.3-3.7C-15.7,334.6-15.1,332-13.4,330.2"/>
	</g>
	<g class="st1">
		<defs>
			<rect id="SVGID_19_" x="-419.4" y="300" width="487.2" height="187"/>
		</defs>
		<clipPath id="SVGID_20_">
			<use xlink:href="#SVGID_19_"  style="overflow:visible;"/>
		</clipPath>
		<path id="XMLID_77_" class="st11" d="M-22.2,458.4c0.7-2,3.6-1,2.9,1c-0.4,1.1-0.7,2.2-1.1,3.3c-0.9,2.8-1.9,5.7-2.8,8.5
			c-0.7,2-3.6,1-2.9-1c0.4-1.1,0.7-2.2,1.1-3.3C-24.2,464.3-23.6,460.9-22.2,458.4"/>
	</g>
	<g class="st1">
		<defs>
			<rect id="SVGID_21_" x="-419.4" y="300" width="487.2" height="187"/>
		</defs>
		<clipPath id="SVGID_22_">
			<use xlink:href="#SVGID_21_"  style="overflow:visible;"/>
		</clipPath>
		<path id="XMLID_76_" class="st12" d="M-41.8,320.6c0.9-1.9,3.7-0.5,2.8,1.4c-0.5,1-1,2.1-1.5,3.1c-1.3,2.7-2.6,5.4-4,8.1
			c-0.9,1.9-3.7,0.5-2.8-1.4c0.5-1,1-2.1,1.5-3.1C-44.5,326.1-43.5,322.9-41.8,320.6"/>
	</g>
	<g class="st1">
		<defs>
			<rect id="SVGID_23_" x="-419.4" y="300" width="487.2" height="187"/>
		</defs>
		<clipPath id="SVGID_24_">
			<use xlink:href="#SVGID_23_"  style="overflow:visible;"/>
		</clipPath>
		<path id="XMLID_75_" class="st13" d="M-52,452.3c1.7-1.2,3.5,1.2,1.8,2.5c-0.9,0.7-1.9,1.4-2.8,2.1c-2.3,1.7-4.7,4.1-7.2,5.4
			c-1.7,1.2-3.5-1.2-1.8-2.5c0.9-0.7,1.9-1.4,2.8-2.1C-56.8,455.8-54.4,454-52,452.3"/>
	</g>
	<g class="st1">
		<defs>
			<rect id="SVGID_25_" x="-419.4" y="300" width="487.2" height="187"/>
		</defs>
		<clipPath id="SVGID_26_">
			<use xlink:href="#SVGID_25_"  style="overflow:visible;"/>
		</clipPath>
		<path id="XMLID_74_" class="st14" d="M-67.6,340.5c1,2-1.8,3.1-2.8,1.3c-0.8-1.4-1.6-2.9-2.4-4.3c-1.1-2-2.5-4.5-3.1-6.7
			c-1-1.9,2-3.3,2.8-1.3c0.6,1.5,1.2,3.1,1.8,4.6C-70.5,336.5-68.9,338.5-67.6,340.5"/>
	</g>
	<g class="st1">
		<defs>
			<rect id="SVGID_27_" x="-419.4" y="300" width="487.2" height="187"/>
		</defs>
		<clipPath id="SVGID_28_">
			<use xlink:href="#SVGID_27_"  style="overflow:visible;"/>
		</clipPath>
		<path id="XMLID_73_" class="st15" d="M-85.6,468.6c0.6,2-2.4,2.9-3,0.8c-0.3-1.1-0.6-2.2-0.9-3.4c-0.8-2.7-2.2-5.8-2.4-8.7
			c-0.6-2,2.4-2.9,3-0.8c0.3,1.1,0.6,2.2,0.9,3.3C-87.2,462.9-86.4,465.8-85.6,468.6"/>
	</g>
	<g class="st1">
		<defs>
			<rect id="SVGID_29_" x="-419.4" y="300" width="487.2" height="187"/>
		</defs>
		<clipPath id="SVGID_30_">
			<use xlink:href="#SVGID_29_"  style="overflow:visible;"/>
		</clipPath>
		<path id="XMLID_72_" class="st16" d="M-86.7,349.4c0.6,2-2.4,2.9-3,0.8c-0.3-1.1-0.6-2.2-0.9-3.4c-0.8-2.7-2.2-5.8-2.4-8.7
			c-0.6-2,2.4-2.9,3-0.8c0.3,1.1,0.6,2.2,0.9,3.3C-88.3,343.6-87.5,346.5-86.7,349.4"/>
	</g>
	<g class="st1">
		<defs>
			<rect id="SVGID_31_" x="-419.4" y="300" width="487.2" height="187"/>
		</defs>
		<clipPath id="SVGID_32_">
			<use xlink:href="#SVGID_31_"  style="overflow:visible;"/>
		</clipPath>
		<path id="XMLID_71_" class="st17" d="M-110.8,326.4c0.1-2.1,3.2-2,3.1,0.1c0,1.2-0.1,2.3-0.1,3.5c-0.1,3-0.3,6-0.4,9
			c-0.1,2.1-3.2,2-3.1-0.1c0-1.2,0.1-2.3,0.1-3.5C-111,332.6-111.4,329.2-110.8,326.4"/>
	</g>
	<g class="st1">
		<defs>
			<rect id="SVGID_33_" x="-419.4" y="300" width="487.2" height="187"/>
		</defs>
		<clipPath id="SVGID_34_">
			<use xlink:href="#SVGID_33_"  style="overflow:visible;"/>
		</clipPath>
		<path id="XMLID_70_" class="st18" d="M-116.5,455c1.3-1.9,3.5,0.2,2.4,2c-0.8,1.4-1.7,2.9-2.5,4.3c-1.2,2.1-3.1,3.8-4.7,5.7
			c-1.3,1.8-3.8-0.3-2.4-1.9c1.1-1.2,2.2-2.5,3.3-3.7C-118.7,459.4-118.1,456.8-116.5,455"/>
	</g>
	<g class="st1">
		<defs>
			<rect id="SVGID_35_" x="-419.4" y="300" width="487.2" height="187"/>
		</defs>
		<clipPath id="SVGID_36_">
			<use xlink:href="#SVGID_35_"  style="overflow:visible;"/>
		</clipPath>
		<path id="XMLID_69_" class="st19" d="M-124.8,319.5c0.9-1.9,3.7-0.5,2.8,1.4c-0.5,1-1,2.1-1.5,3.1c-1.3,2.7-2.6,5.4-4,8.1
			c-0.9,1.9-3.7,0.5-2.8-1.4C-129.8,329.6-126.5,321.8-124.8,319.5"/>
	</g>
	<g class="st1">
		<defs>
			<rect id="SVGID_37_" x="-419.4" y="300" width="487.2" height="187"/>
		</defs>
		<clipPath id="SVGID_38_">
			<use xlink:href="#SVGID_37_"  style="overflow:visible;"/>
		</clipPath>
		<path id="XMLID_68_" class="st20" d="M-130.1,345c1.7,1.2-0.1,3.7-1.8,2.5c-0.9-0.7-1.9-1.3-2.8-2c-2.3-1.6-5.3-3.1-7.3-5.1
			c-1.7-1.2,0.1-3.7,1.8-2.5c0.9,0.7,1.9,1.3,2.8,2C-134.9,341.6-132.5,343.3-130.1,345"/>
	</g>
	<g class="st1">
		<defs>
			<rect id="SVGID_39_" x="-419.4" y="300" width="487.2" height="187"/>
		</defs>
		<clipPath id="SVGID_40_">
			<use xlink:href="#SVGID_39_"  style="overflow:visible;"/>
		</clipPath>
		<path id="XMLID_67_" class="st21" d="M-140.4,409c1,2-1.8,3.1-2.8,1.3c-0.8-1.4-1.6-2.9-2.4-4.3c-1.2-2-2.5-4.5-3.1-6.7
			c-1-1.9,2-3.3,2.8-1.3c0.6,1.5,1.2,3.1,1.8,4.6C-143.3,404.9-141.7,406.9-140.4,409"/>
	</g>
	<g class="st1">
		<defs>
			<rect id="SVGID_41_" x="-419.4" y="300" width="487.2" height="187"/>
		</defs>
		<clipPath id="SVGID_42_">
			<use xlink:href="#SVGID_41_"  style="overflow:visible;"/>
		</clipPath>
		<path id="XMLID_66_" class="st22" d="M-146.1,472.4c1,2-1.8,3.1-2.8,1.3c-0.8-1.4-1.6-2.9-2.4-4.3c-1.2-2-2.5-4.5-3.1-6.7
			c-1-1.9,2-3.3,2.8-1.3c0.6,1.5,1.2,3.1,1.8,4.6C-149,468.3-147.4,470.3-146.1,472.4"/>
	</g>
	<g class="st1">
		<defs>
			<rect id="SVGID_43_" x="-419.4" y="300" width="487.2" height="187"/>
		</defs>
		<clipPath id="SVGID_44_">
			<use xlink:href="#SVGID_43_"  style="overflow:visible;"/>
		</clipPath>
		<path id="XMLID_65_" class="st23" d="M-151.4,356.2c1,2-1.8,3.1-2.8,1.3c-0.8-1.4-1.6-2.9-2.4-4.3c-1.2-2-2.5-4.5-3.1-6.7
			c-1-1.9,2-3.3,2.8-1.3c0.6,1.5,1.2,3.1,1.8,4.6C-154.3,352.2-152.7,354.2-151.4,356.2"/>
	</g>
	<g class="st1">
		<defs>
			<rect id="SVGID_45_" x="-419.4" y="300" width="487.2" height="187"/>
		</defs>
		<clipPath id="SVGID_46_">
			<use xlink:href="#SVGID_45_"  style="overflow:visible;"/>
		</clipPath>
		<path id="XMLID_64_" class="st24" d="M-156.1,373.3c0.9-1.9,3.7-0.5,2.8,1.4c-0.5,1-1,2.1-1.5,3.1c-1.3,2.7-2.6,5.4-4,8.1
			c-0.9,1.9-3.7,0.5-2.8-1.4c0.5-1,1-2.1,1.5-3.1C-158.8,378.8-157.7,375.6-156.1,373.3"/>
	</g>
	<g class="st1">
		<defs>
			<rect id="SVGID_47_" x="-419.4" y="300" width="487.2" height="187"/>
		</defs>
		<clipPath id="SVGID_48_">
			<use xlink:href="#SVGID_47_"  style="overflow:visible;"/>
		</clipPath>
		<path id="XMLID_63_" class="st25" d="M-161.7,326.2c0.9-1.9,3.7-0.5,2.8,1.4c-0.5,1-1,2.1-1.5,3.1c-1.3,2.7-2.6,5.4-4,8.1
			c-0.9,1.9-3.7,0.5-2.8-1.4c0.5-1,1-2.1,1.5-3.1C-164.4,331.7-163.4,328.5-161.7,326.2"/>
	</g>
	<g class="st1">
		<defs>
			<rect id="SVGID_49_" x="-419.4" y="300" width="487.2" height="187"/>
		</defs>
		<clipPath id="SVGID_50_">
			<use xlink:href="#SVGID_49_"  style="overflow:visible;"/>
		</clipPath>
		<path id="XMLID_62_" class="st26" d="M-164.3,438.8c0.9-1.9,3.7-0.5,2.8,1.4c-0.5,1-1,2.1-1.5,3.1c-1.3,2.7-2.6,5.4-4,8.1
			c-0.9,1.9-3.7,0.5-2.8-1.4c0.5-1,1-2.1,1.5-3.1C-167,444.3-166,441.1-164.3,438.8"/>
	</g>
	<g class="st1">
		<defs>
			<rect id="SVGID_51_" x="-419.4" y="300" width="487.2" height="187"/>
		</defs>
		<clipPath id="SVGID_52_">
			<use xlink:href="#SVGID_51_"  style="overflow:visible;"/>
		</clipPath>
		<path id="XMLID_61_" class="st27" d="M-164.6,419.7c0.3,2.6-0.2,5.2-0.5,7.7c0,2.1-3.3,2-3.1,0c0.2-1.6,0.3-3.1,0.5-4.7
			c0.3-2.6-0.8-5.2-0.5-7.7c0-2.2,2.9-2,3.1,0C-164.9,416.5-164.8,418.1-164.6,419.7"/>
	</g>
	<g class="st1">
		<defs>
			<rect id="SVGID_53_" x="-419.4" y="300" width="487.2" height="187"/>
		</defs>
		<clipPath id="SVGID_54_">
			<use xlink:href="#SVGID_53_"  style="overflow:visible;"/>
		</clipPath>
		<path id="XMLID_60_" class="st28" d="M-171.9,363.1c-0.3,2.6,0.8,5.2,0.5,7.7c0,2.2-2.9,2-3.1,0c-0.2-1.6-0.3-3.1-0.5-4.7
			c-0.3-2.6,0.2-5.2,0.5-7.7c0-2.1,3.3-2,3.1,0C-171.6,360-171.8,361.6-171.9,363.1"/>
	</g>
</g>
<text id="XMLID_19_" transform="matrix(0.9976 -6.975503e-02 6.975503e-02 0.9976 -131.9896 379.0952)" class="st29 st30 st31">J-Rock</text>
<text id="XMLID_18_" transform="matrix(0.9976 -6.975503e-02 6.975503e-02 0.9976 -13.1519 370.7855)" class="st29 st32 st31"> </text>
<text id="XMLID_17_" transform="matrix(0.9976 -6.975503e-02 6.975503e-02 0.9976 -6.4168 370.3145)" class="st29 st30 st31">s</text>
<text id="XMLID_16_" transform="matrix(0.9976 -6.975503e-02 6.975503e-02 0.9976 -134.632 411.7664)" class="st29 st30 st31">Excellent</text>
<text id="XMLID_15_" transform="matrix(0.9976 -6.975503e-02 6.975503e-02 0.9976 -148.3475 445.2137)" class="st29 st30 st31">Ice Creams</text>
</svg>
